<?xml version="1.0" encoding="UTF-8"?>
<svg width="500px" height="500px" viewBox="0 0 500 500" version="1.1" xmlns="http://www.w3.org/2000/svg" xmlns:xlink="http://www.w3.org/1999/xlink">
    <!-- Generator: Sketch 53.2 (72643) - https://sketchapp.com -->
    <title>品牌衍生设计</title>
    <desc>Created with Sketch.</desc>
    <g id="品牌衍生设计" stroke="none" stroke-width="1" fill="none" fill-rule="evenodd">
        <g id="转曲" transform="translate(100.000000, 100.000000)">
            <polygon id="Triangle-Copy-5" fill="#F3F4F4" points="150 10.1527317 150.5 149.499679 28.5502246 77.888024"></polygon>
            <polygon id="Triangle-Copy-4" fill="#F3F4F4" points="272.449775 80 272.949775 219.346948 151 147.735292"></polygon>
            <polygon id="Triangle-Copy-3" fill="#F3F4F4" points="149.449775 150 149.449775 291.911975 28.5502246 223.848807"></polygon>
            <polygon id="Line-Copy-5" fill="#A7A9AC" fill-rule="nonzero" points="149.210402 6.00276335 151.210395 5.99724426 152.002756 293.13057 150.002763 293.136089"></polygon>
            <polygon id="Line-Copy-4" fill="#A7A9AC" fill-rule="nonzero" transform="translate(150.446403, 149.999679) rotate(-120.000000) translate(-150.446403, -149.999679) " points="149.685539 5.18605233 151.685537 5.18935503 151.207266 294.813306 149.207268 294.810004"></polygon>
            <polygon id="Line-Copy-3" fill="#A7A9AC" fill-rule="nonzero" transform="translate(150.682075, 148.789634) rotate(120.000000) translate(-150.682075, -148.789634) " points="149.938408 3.82814295 151.938405 3.83167953 151.425743 293.751126 149.425746 293.747589"></polygon>
            <path d="M150.167194,161.319091 C156.31232,161.319091 161.325331,156.309514 161.325331,150.164071 C161.325331,144.018628 156.31232,139 150.167194,139 C144.017539,139 139,144.009577 139,150.15502 C139,156.300463 144.017539,161.305515 150.167194,161.305515 L150.167194,161.319091 Z" id="Path-Copy" fill="#83B6DC"></path>
            <path d="M161,15.5884573 C154.193176,11.6585358 145.806824,11.6585358 139,15.5884573 L39.0961894,73.2679492 C32.2893657,77.1978707 28.0961894,84.4606651 28.0961894,92.3205081 L28.0961894,207.679492 C28.0961894,215.539335 32.2893657,222.802129 39.0961894,226.732051 L139,284.411543 C145.806824,288.341464 154.193176,288.341464 161,284.411543 L260.903811,226.732051 C267.710634,222.802129 271.903811,215.539335 271.903811,207.679492 L271.903811,92.3205081 C271.903811,84.4606651 267.710634,77.1978707 260.903811,73.2679492 L161,15.5884573 Z M165,8.66025404 L264.903811,66.339746 C274.185843,71.6987298 279.903811,81.6025404 279.903811,92.3205081 L279.903811,207.679492 C279.903811,218.39746 274.185843,228.30127 264.903811,233.660254 L165,291.339746 C155.717968,296.69873 144.282032,296.69873 135,291.339746 L35.0961894,233.660254 C25.8141571,228.30127 20.0961894,218.39746 20.0961894,207.679492 L20.0961894,92.3205081 C20.0961894,81.6025404 25.8141571,71.6987298 35.0961894,66.339746 L135,8.66025404 C144.282032,3.30127019 155.717968,3.30127019 165,8.66025404 Z" id="Polygon-Copy" fill="#A7A9AC" fill-rule="nonzero"></path>
        </g>
    </g>
</svg>