<?xml version="1.0" encoding="UTF-8"?>
<svg width="500px" height="500px" viewBox="0 0 500 500" version="1.1" xmlns="http://www.w3.org/2000/svg" xmlns:xlink="http://www.w3.org/1999/xlink">
    <!-- Generator: Sketch 53.2 (72643) - https://sketchapp.com -->
    <title>设计策略咨询</title>
    <desc>Created with Sketch.</desc>
    <g id="设计策略咨询" stroke="none" stroke-width="1" fill="none" fill-rule="evenodd">
        <g id="转曲" transform="translate(84.011837, 104.000000)">
            <path d="M165.988163,4 L279.060286,63.4367945 C289.261603,68.7991557 295.48925,79.531364 295.083017,91.0490355 L290.545152,219.708508 L165.988163,288.133333 L165.988163,4 Z" id="Polygon-Copy" fill="#F3F4F4"></path>
            <path d="M176.988163,11.5884573 C170.18134,7.65853578 161.794987,7.65853578 154.988163,11.5884573 L55.0843528,69.2679492 C48.2775291,73.1978707 44.0843528,80.4606651 44.0843528,88.3205081 L44.0843528,203.679492 C44.0843528,211.539335 48.2775291,218.802129 55.0843528,222.732051 L154.988163,280.411543 C161.794987,284.341464 170.18134,284.341464 176.988163,280.411543 L276.891974,222.732051 C283.698798,218.802129 287.891974,211.539335 287.891974,203.679492 L287.891974,88.3205081 C287.891974,80.4606651 283.698798,73.1978707 276.891974,69.2679492 L176.988163,11.5884573 Z M180.988163,4.66025404 L280.891974,62.339746 C290.174006,67.6987298 295.891974,77.6025404 295.891974,88.3205081 L295.891974,203.679492 C295.891974,214.39746 290.174006,224.30127 280.891974,229.660254 L180.988163,287.339746 C171.706131,292.69873 160.270196,292.69873 150.988163,287.339746 L51.0843528,229.660254 C41.8023205,224.30127 36.0843528,214.39746 36.0843528,203.679492 L36.0843528,88.3205081 C36.0843528,77.6025404 41.8023205,67.6987298 51.0843528,62.339746 L150.988163,4.66025404 C160.270196,-0.698729811 171.706131,-0.698729811 180.988163,4.66025404 Z" id="Polygon" fill="#A7A9AC" fill-rule="nonzero"></path>
            <path d="M0.610800334,5.29103618 L111.522289,67.3881222 C120.833833,72.6014664 126.674955,82.3688912 126.861978,93.0388881 C127.067047,104.738424 128.581206,117.525558 131.404454,131.400289 C135.635245,152.19233 147.366748,172.653022 166.598964,192.782365 L64.7555359,241.324201 C36.3504964,208.274984 18.0478894,170.603519 9.84771479,128.309805 C1.64754017,86.016091 -1.43143132,45.0098347 0.610800334,5.29103618 Z" id="Polygon-Copy-3" fill="#FFFFFF" transform="translate(83.299482, 123.307618) scale(-1, 1) translate(-83.299482, -123.307618) "></path>
            <path d="M2.45393205,8.61509835 C0.744550411,47.163879 3.86283547,86.9344133 11.8111506,127.929122 C19.8490513,169.385882 37.6665336,206.352602 65.2796317,238.858838 L163.261472,192.157558 C144.90252,172.414887 133.615239,152.29543 129.444615,131.799079 C126.598039,117.8097 125.069608,104.902036 124.862286,93.0739386 C124.687731,83.1152748 119.236016,73.9990117 110.545242,69.1332238 L2.45393205,8.61509835 Z M0.610800334,5.29103618 L111.522289,67.3881222 C120.833833,72.6014664 126.674955,82.3688912 126.861978,93.0388881 C127.067047,104.738424 128.581206,117.525558 131.404454,131.400289 C135.635245,152.19233 147.366748,172.653022 166.598964,192.782365 L64.7555359,241.324201 C36.3504964,208.274984 18.0478894,170.603519 9.84771479,128.309805 C1.64754017,86.016091 -1.43143132,45.0098347 0.610800334,5.29103618 Z" id="Polygon-Copy-2" fill="#A7A9AC" fill-rule="nonzero" transform="translate(83.299482, 123.307618) scale(-1, 1) translate(-83.299482, -123.307618) "></path>
            <path d="M146.988163,56 C153.596725,56 158.988163,52.8493151 158.988163,49 C158.988163,45.1415525 153.596725,42 146.988163,42 C140.379602,42 134.988163,45.1415525 134.988163,49 C134.988163,52.8538813 140.388858,55.9954338 146.997419,55.9954338 L146.988163,56 Z" id="Path" fill="#83B6DC" transform="translate(146.988163, 49.000000) rotate(-90.000000) translate(-146.988163, -49.000000) "></path>
        </g>
    </g>
</svg>