<?xml version="1.0" encoding="UTF-8"?>
<svg width="500px" height="500px" viewBox="0 0 500 500" version="1.1" xmlns="http://www.w3.org/2000/svg" xmlns:xlink="http://www.w3.org/1999/xlink">
    <!-- Generator: Sketch 53.2 (72643) - https://sketchapp.com -->
    <title>产品创新设计 </title>
    <desc>Created with Sketch.</desc>
    <g id="产品创新设计-" stroke="none" stroke-width="1" fill="none" fill-rule="evenodd">
        <g id="转曲" transform="translate(100.000000, 67.878783)">
            <path d="M165,40.7814713 L264.903811,98.4609633 C274.185843,103.819947 279.903811,113.723758 279.903811,124.441725 L279.903811,239.800709 C279.903811,250.518677 274.185843,260.422487 264.903811,265.781471 L165,323.460963 C155.717968,328.819947 144.282032,328.819947 135,323.460963 L35.0961894,265.781471 C25.8141571,260.422487 20.0961894,250.518677 20.0961894,239.800709 L20.0961894,124.441725 C20.0961894,113.723758 25.8141571,103.819947 35.0961894,98.4609633 L135,40.7814713 C144.282032,35.4224875 155.717968,35.4224875 165,40.7814713 Z" id="Polygon-Copy-2" fill="#F3F4F4"></path>
            <path d="M100.356874,147.192016 L192.65166,196.483903 C195.855404,198.194927 197.879546,201.508512 197.939363,205.140041 L199.610115,306.573573 C199.655594,309.334622 197.454189,311.609762 194.693139,311.655241 C193.875644,311.668706 193.067318,311.481493 192.338981,311.110003 L96.0646541,262.005127 C92.640439,260.258601 90.5203994,256.703934 90.6110617,252.861099 L93.0027939,151.484501 C93.0679248,148.723846 95.3586773,146.538691 98.1193329,146.603822 C98.9009075,146.622261 99.6672682,146.823719 100.356874,147.192016 Z" id="Polygon-Copy-7" fill="#FFFFFF" transform="translate(145.109618, 229.129132) rotate(120.000000) translate(-145.109618, -229.129132) "></path>
            <path d="M99.8857795,148.074099 C99.3340951,147.779461 98.7210066,147.618295 98.0957469,147.603544 C95.8872225,147.551439 94.0546204,149.299563 94.0025157,151.508087 L91.6107835,252.884685 C91.5291875,256.343237 93.4372231,259.542436 96.5190167,261.11431 L192.793343,310.219186 C193.376013,310.516378 194.022674,310.666149 194.67667,310.655376 C196.88551,310.618994 198.646634,308.798882 198.610251,306.590042 L196.939498,205.15651 C196.885663,201.888134 195.063936,198.905908 192.180566,197.365986 L99.8857795,148.074099 Z M100.356874,147.192016 L192.65166,196.483903 C195.855404,198.194927 197.879546,201.508512 197.939363,205.140041 L199.610115,306.573573 C199.655594,309.334622 197.454189,311.609762 194.693139,311.655241 C193.875644,311.668706 193.067318,311.481493 192.338981,311.110003 L96.0646541,262.005127 C92.640439,260.258601 90.5203994,256.703934 90.6110617,252.861099 L93.0027939,151.484501 C93.0679248,148.723846 95.3586773,146.538691 98.1193329,146.603822 C98.9009075,146.622261 99.6672682,146.823719 100.356874,147.192016 Z" id="Polygon-Copy-6" fill="#A7A9AC" fill-rule="nonzero" transform="translate(145.109536, 229.129161) rotate(120.000000) translate(-145.109536, -229.129161) "></path>
            <polygon id="Polygon-Copy-5" fill="#FFFFFF" transform="translate(150.662413, 109.488835) rotate(120.000000) translate(-150.662413, -109.488835) " points="92.60912 3 215.162413 73.48789 215.162413 215.97767 86.1624125 145.696398"></polygon>
            <polygon id="Polygon-Copy-4" fill="#FFFFFF" transform="translate(211.570666, 221.463172) rotate(240.000000) translate(-211.570666, -221.463172) " points="153.517374 114.974336 276.070666 185.462226 276.070666 327.952007 147.070666 257.670734"></polygon>
            <polygon id="Line" fill="#A7A9AC" fill-rule="nonzero" points="149.145442 180.386887 151.145441 180.388882 150.999002 327.255547 148.999003 327.253553"></polygon>
            <polygon id="Line-Copy-2" fill="#A7A9AC" fill-rule="nonzero" transform="translate(212.268421, 145.835815) rotate(-120.000000) translate(-212.268421, -145.835815) " points="211.249744 72.80131 213.249744 72.8007986 213.287098 218.87032 211.287098 218.870831"></polygon>
            <polygon id="Line-Copy" fill="#A7A9AC" fill-rule="nonzero" transform="translate(87.488275, 145.018828) rotate(120.000000) translate(-87.488275, -145.018828) " points="86.6925156 72.1642807 88.6925077 72.1698876 88.2840343 217.873376 86.2840421 217.867769"></polygon>
            <path d="M161,47.7096746 C154.193176,43.7797531 145.806824,43.7797531 139,47.7096746 L39.0961894,105.389167 C32.2893657,109.319088 28.0961894,116.581882 28.0961894,124.441725 L28.0961894,239.800709 C28.0961894,247.660552 32.2893657,254.923347 39.0961894,258.853268 L139,316.53276 C145.806824,320.462682 154.193176,320.462682 161,316.53276 L260.903811,258.853268 C267.710634,254.923347 271.903811,247.660552 271.903811,239.800709 L271.903811,124.441725 C271.903811,116.581882 267.710634,109.319088 260.903811,105.389167 L161,47.7096746 Z M165,40.7814713 L264.903811,98.4609633 C274.185843,103.819947 279.903811,113.723758 279.903811,124.441725 L279.903811,239.800709 C279.903811,250.518677 274.185843,260.422487 264.903811,265.781471 L165,323.460963 C155.717968,328.819947 144.282032,328.819947 135,323.460963 L35.0961894,265.781471 C25.8141571,260.422487 20.0961894,250.518677 20.0961894,239.800709 L20.0961894,124.441725 C20.0961894,113.723758 25.8141571,103.819947 35.0961894,98.4609633 L135,40.7814713 C144.282032,35.4224875 155.717968,35.4224875 165,40.7814713 Z" id="Polygon" fill="#A7A9AC" fill-rule="nonzero"></path>
            <path d="M83,238.121217 C89.6085615,238.121217 95,234.970532 95,231.121217 C95,227.26277 89.6085615,224.121217 83,224.121217 C76.3914385,224.121217 71,227.26277 71,231.121217 C71,234.975099 76.4006942,238.116651 83.0092557,238.116651 L83,238.121217 Z" id="Path" fill="#83B6DC"></path>
        </g>
    </g>
</svg>