<?xml version="1.0" encoding="UTF-8"?>
<svg width="500px" height="500px" viewBox="0 0 500 500" version="1.1" xmlns="http://www.w3.org/2000/svg" xmlns:xlink="http://www.w3.org/1999/xlink">
    <!-- Generator: Sketch 53.2 (72643) - https://sketchapp.com -->
    <title>服务优化设计</title>
    <desc>Created with Sketch.</desc>
    <g id="服务优化设计" stroke="none" stroke-width="1" fill="none" fill-rule="evenodd">
        <g id="转曲" transform="translate(120.000000, 104.000000)">
            <polyline id="Path" fill="#F3F4F4" points="6.29252831 216.559193 21.2069578 201.771375 73.0017111 149.667059 140.497706 185.749463 176.993 122.096447 255 79.7624248 255 94.5213134 249.000156 216.834242 131.50245 287 27.8384783 232.20076"></polyline>
            <polygon id="Path-2" fill="#A7A9AC" fill-rule="nonzero" points="6.99024795 213.906088 5.59480866 212.473346 70.9895937 148.781165 139.490818 185.498059 174.093617 122.433882 254.49487 75.375855 255.50513 77.1019412 175.581052 123.880683 140.291528 188.196427 71.335737 151.235884"></polygon>
            <path d="M71.1671938,161.16807 C77.3123203,161.16807 82.3253306,156.158493 82.3253306,150.01305 C82.3253306,143.867607 77.3123203,138.848979 71.1671938,138.848979 C65.0175388,138.848979 60,143.858556 60,150.003999 C60,156.149442 65.0175388,161.154494 71.1671938,161.154494 L71.1671938,161.16807 Z M139.90023,198 C146.0363,198 151.058367,192.990423 151.058367,186.84498 C151.058367,180.699537 146.040828,175.694485 139.895702,175.694485 C133.73699,175.694485 128.723979,180.699537 128.723979,186.84498 C128.723979,192.990423 133.732461,198 139.886645,198 L139.90023,198 Z M174.832806,134.314565 C180.992318,134.29965 185.982576,129.314831 186,123.159545 C185.990027,117.000432 180.996141,112.009966 174.832806,112 C168.676535,112.014926 163.689606,116.99844 163.674669,123.150495 C163.689606,129.30255 168.676535,134.286063 174.832806,134.300989 L174.832806,134.314565 Z" id="Shape" fill="#83B6DC"></path>
            <path d="M141,11.5884573 C134.193176,7.65853578 125.806824,7.65853578 119,11.5884573 L19.0961894,69.2679492 C12.2893657,73.1978707 8.09618943,80.4606651 8.09618943,88.3205081 L8.09618943,203.679492 C8.09618943,211.539335 12.2893657,218.802129 19.0961894,222.732051 L119,280.411543 C125.806824,284.341464 134.193176,284.341464 141,280.411543 L240.903811,222.732051 C247.710634,218.802129 251.903811,211.539335 251.903811,203.679492 L251.903811,88.3205081 C251.903811,80.4606651 247.710634,73.1978707 240.903811,69.2679492 L141,11.5884573 Z M145,4.66025404 L244.903811,62.339746 C254.185843,67.6987298 259.903811,77.6025404 259.903811,88.3205081 L259.903811,203.679492 C259.903811,214.39746 254.185843,224.30127 244.903811,229.660254 L145,287.339746 C135.717968,292.69873 124.282032,292.69873 115,287.339746 L15.0961894,229.660254 C5.81415713,224.30127 0.0961894323,214.39746 0.0961894323,203.679492 L0.0961894323,88.3205081 C0.0961894323,77.6025404 5.81415713,67.6987298 15.0961894,62.339746 L115,4.66025404 C124.282032,-0.698729811 135.717968,-0.698729811 145,4.66025404 Z" id="Polygon" fill="#A7A9AC" fill-rule="nonzero"></path>
        </g>
    </g>
</svg>