<?xml version="1.0" encoding="UTF-8"?>
<svg width="500px" height="500px" viewBox="0 0 500 500" version="1.1" xmlns="http://www.w3.org/2000/svg" xmlns:xlink="http://www.w3.org/1999/xlink">
    <!-- Generator: Sketch 53.2 (72643) - https://sketchapp.com -->
    <title>空间体验设计</title>
    <desc>Created with Sketch.</desc>
    <g id="空间体验设计" stroke="none" stroke-width="1" fill="none" fill-rule="evenodd">
        <g id="转曲" transform="translate(120.000000, 104.000000)">
            <path d="M6,209.653303 L93.8380954,183.12005 L93.8380954,108.090687 L6,76.4235193 L6,209.653303 Z M95.8380954,106.685718 L95.8380954,184.605165 L4,212.346697 L4,73.5764807 L95.8380954,106.685718 Z" id="Rectangle" fill="#A7A9AC" fill-rule="nonzero"></path>
            <polygon id="Rectangle-Copy-2" fill="#F3F4F4" points="254.300493 75 94.8380954 107.388203 94.8380954 183.862608 254.300493 211"></polygon>
            <path d="M255.300493,73.7764732 L255.300493,212.184558 L93.8380954,184.706804 L93.8380954,106.570893 L255.300493,73.7764732 Z M253.300493,76.2235268 L95.8380954,108.205512 L95.8380954,183.018411 L253.300493,209.815442 L253.300493,76.2235268 Z" id="Rectangle-Copy" fill="#A7A9AC" fill-rule="nonzero"></path>
            <path d="M141,11.5884573 C134.193176,7.65853578 125.806824,7.65853578 119,11.5884573 L19.0961894,69.2679492 C12.2893657,73.1978707 8.09618943,80.4606651 8.09618943,88.3205081 L8.09618943,203.679492 C8.09618943,211.539335 12.2893657,218.802129 19.0961894,222.732051 L119,280.411543 C125.806824,284.341464 134.193176,284.341464 141,280.411543 L240.903811,222.732051 C247.710634,218.802129 251.903811,211.539335 251.903811,203.679492 L251.903811,88.3205081 C251.903811,80.4606651 247.710634,73.1978707 240.903811,69.2679492 L141,11.5884573 Z M145,4.66025404 L244.903811,62.339746 C254.185843,67.6987298 259.903811,77.6025404 259.903811,88.3205081 L259.903811,203.679492 C259.903811,214.39746 254.185843,224.30127 244.903811,229.660254 L145,287.339746 C135.717968,292.69873 124.282032,292.69873 115,287.339746 L15.0961894,229.660254 C5.81415713,224.30127 0.0961894323,214.39746 0.0961894323,203.679492 L0.0961894323,88.3205081 C0.0961894323,77.6025404 5.81415713,67.6987298 15.0961894,62.339746 L115,4.66025404 C124.282032,-0.698729811 135.717968,-0.698729811 145,4.66025404 Z" id="Polygon" fill="#A7A9AC" fill-rule="nonzero"></path>
            <path d="M95.1671938,201.319091 C101.31232,201.319091 106.325331,196.309514 106.325331,190.164071 C106.325331,184.018628 101.31232,179 95.1671938,179 C89.0175388,179 84,184.009577 84,190.15502 C84,196.300463 89.0175388,201.305515 95.1671938,201.305515 L95.1671938,201.319091 Z" id="Path" fill="#83B6DC"></path>
        </g>
    </g>
</svg>