<?xml version="1.0" encoding="UTF-8"?>
<svg width="500px" height="500px" viewBox="0 0 500 500" version="1.1" xmlns="http://www.w3.org/2000/svg" xmlns:xlink="http://www.w3.org/1999/xlink">
    <!-- Generator: Sketch 53.2 (72643) - https://sketchapp.com -->
    <title>用户体验设计</title>
    <desc>Created with Sketch.</desc>
    <g id="用户体验设计" stroke="none" stroke-width="1" fill="none" fill-rule="evenodd">
        <g id="转曲" transform="translate(120.000000, 104.000000)">
            <path d="M6,214.040524 L4.98994098,146.498442 L114.84982,210.988348 C123.287888,215.957865 135.685721,215.379352 144.170929,210.499932 L258,145 L255.280268,214.040524 L229.621364,234.522598 L131,287 L6,214.040524 Z" id="Path" fill="#F3F4F4"></path>
            <path d="M129.277291,218 C122.194933,218 115.494005,214.570346 102.920937,207.29002 L18.2151836,158.215224 C10.859703,153.957723 6,151.138311 6,146.88081 C6,143.332892 9.37165439,139.988389 18.007987,134.969268 L102.534797,85.8897416 C115.286809,78.4864203 122.06779,75 129.131311,75 C136.213669,75 142.909888,78.4296536 155.487666,85.7099805 L240.052148,134.709087 C241.370672,135.465976 242.689196,136.17556 243.941794,136.837838 C248.726153,139.378147 252.860668,141.568395 252.997229,145.400146 C253.105537,148.758841 250.044677,152.117536 242.755123,156.673062 L155.883223,207.110258 C143.121794,214.51831 136.340813,218 129.277291,218 Z M129.126602,78.959476 C123.014302,78.959476 116.628878,82.2708657 104.498457,89.3193953 L19.9810641,138.394191 C13.3225176,142.259056 9.95086318,145.111582 9.95086318,146.871349 C9.95086318,148.843991 14.6975498,151.601905 20.1929697,154.78084 L20.4284205,154.922756 L104.884596,203.860366 C116.845493,210.78117 123.146154,214.040524 129.277291,214.040524 C135.389592,214.040524 141.779724,210.719673 153.905437,203.680605 L240.739664,153.276523 C248.321178,148.545966 249.084038,146.28949 249.065202,145.542062 C249.018112,143.999901 245.500478,142.136061 242.095861,140.33845 C240.805591,139.652519 239.439976,138.928744 238.079071,138.138741 L153.519298,89.1396341 C141.567819,82.2188296 135.267157,78.959476 129.126602,78.959476 Z" id="Shape" fill="#A7A9AC" fill-rule="nonzero"></path>
            <polyline id="Path" fill="#A7A9AC" fill-rule="nonzero" points="218 241.49553 214.058198 241.49553 214.058198 170.849969 87 97.4304647 88.9827027 94 218 168.562993"></polyline>
            <path d="M130,104 C136.608562,104 142,100.849315 142,97 C142,93.1415525 136.608562,90 130,90 C123.391438,90 118,93.1415525 118,97 C118,100.853881 123.400694,103.995434 130.009256,103.995434 L130,104 Z" id="Path" fill="#83B6DC"></path>
            <path d="M152,116 C158.615266,116 164,112.855371 164,108.993144 C164,105.135488 158.601388,102 151.990748,102 C145.384734,102 140,105.140059 140,108.993144 C140,112.855371 145.384734,116 151.990748,116 L152,116 Z" id="Path" fill="#F3F4F4"></path>
            <path d="M175.016182,129 C181.613755,129 187,125.856397 187,122 C187,118.143603 181.613755,115 175.011558,115 C168.400116,115 163,118.143603 163,122 C163,125.856397 168.400116,129 175.002312,129 L175.016182,129 Z" id="Path" fill="#F3F4F4"></path>
            <path d="M141,11.5884573 C134.193176,7.65853578 125.806824,7.65853578 119,11.5884573 L19.0961894,69.2679492 C12.2893657,73.1978707 8.09618943,80.4606651 8.09618943,88.3205081 L8.09618943,203.679492 C8.09618943,211.539335 12.2893657,218.802129 19.0961894,222.732051 L119,280.411543 C125.806824,284.341464 134.193176,284.341464 141,280.411543 L240.903811,222.732051 C247.710634,218.802129 251.903811,211.539335 251.903811,203.679492 L251.903811,88.3205081 C251.903811,80.4606651 247.710634,73.1978707 240.903811,69.2679492 L141,11.5884573 Z M145,4.66025404 L244.903811,62.339746 C254.185843,67.6987298 259.903811,77.6025404 259.903811,88.3205081 L259.903811,203.679492 C259.903811,214.39746 254.185843,224.30127 244.903811,229.660254 L145,287.339746 C135.717968,292.69873 124.282032,292.69873 115,287.339746 L15.0961894,229.660254 C5.81415713,224.30127 0.0961894323,214.39746 0.0961894323,203.679492 L0.0961894323,88.3205081 C0.0961894323,77.6025404 5.81415713,67.6987298 15.0961894,62.339746 L115,4.66025404 C124.282032,-0.698729811 135.717968,-0.698729811 145,4.66025404 Z" id="Polygon-Copy-6" fill="#A7A9AC" fill-rule="nonzero"></path>
        </g>
    </g>
</svg>